<?xml version="1.0" standalone="no"?>
<!DOCTYPE svg PUBLIC "-//W3C//DTD SVG 20010904//EN"
 "http://www.w3.org/TR/2001/REC-SVG-20010904/DTD/svg10.dtd">
<svg version="1.0" xmlns="http://www.w3.org/2000/svg"
 width="512.000000pt" height="512.000000pt" viewBox="0 0 512.000000 512.000000"
 preserveAspectRatio="xMidYMid meet">
<metadata>
Created by potrace 1.14, written by Peter Selinger 2001-2017
</metadata>
<g transform="translate(0.000000,512.000000) scale(0.100000,-0.100000)"
fill="#000000" stroke="none">
<path d="M1190 4229 c-120 -20 -144 -27 -235 -69 -90 -42 -147 -81 -226 -155
-54 -50 -140 -148 -172 -195 -9 -14 -35 -52 -58 -85 -46 -68 -163 -300 -198
-390 -64 -165 -154 -464 -175 -575 -2 -14 -11 -54 -20 -90 -8 -36 -18 -81 -21
-100 -3 -19 -13 -73 -22 -120 -8 -47 -17 -96 -18 -110 -5 -51 -17 -145 -20
-162 -19 -97 -26 -515 -13 -653 13 -128 35 -223 75 -325 59 -148 144 -234 301
-303 26 -12 197 -15 262 -5 59 9 160 47 260 97 175 89 376 235 640 466 80 70
174 144 210 165 127 75 315 138 495 164 177 26 467 27 601 2 11 -2 39 -7 64
-11 223 -35 469 -147 596 -270 42 -40 174 -155 226 -197 35 -27 80 -64 102
-81 75 -62 272 -190 361 -234 141 -72 227 -98 353 -109 306 -26 513 219 550
651 13 155 6 535 -13 660 -6 37 -12 84 -20 150 -4 28 -8 57 -10 65 -3 8 -7 33
-10 55 -10 65 -39 208 -67 325 -34 143 -117 414 -156 510 -5 14 -18 45 -28 70
-89 227 -224 446 -365 592 -120 123 -221 189 -370 240 -89 30 -103 32 -244 32
-82 1 -171 -2 -196 -6 -65 -9 -281 -55 -369 -78 -217 -57 -486 -115 -589 -127
-108 -12 -202 -8 -332 17 -30 6 -65 13 -79 15 -24 4 -189 43 -425 100 -106 25
-209 47 -315 65 -80 15 -269 20 -330 9z m425 -259 c55 -12 163 -37 240 -57 77
-19 149 -37 160 -39 11 -2 49 -11 84 -20 36 -9 74 -18 85 -20 12 -2 32 -6 46
-9 14 -2 39 -7 55 -10 17 -3 40 -7 52 -9 116 -24 313 -25 428 -2 21 3 66 11
122 21 18 3 128 28 245 56 434 104 510 117 661 114 254 -6 442 -121 612 -375
159 -238 280 -551 369 -960 31 -142 62 -316 71 -395 3 -33 8 -67 10 -75 3 -8
7 -46 10 -85 3 -38 8 -97 11 -130 8 -82 8 -293 0 -390 -20 -228 -78 -378 -172
-443 -35 -24 -48 -27 -124 -26 -89 0 -123 9 -241 62 -118 53 -308 179 -445
294 -41 34 -276 240 -299 262 -31 29 -143 100 -212 135 -149 75 -377 139 -553
156 -36 4 -76 9 -90 11 -33 6 -338 6 -370 0 -14 -3 -50 -7 -80 -10 -210 -22
-471 -102 -635 -194 -58 -32 -171 -114 -227 -165 -16 -13 -58 -51 -95 -84
-403 -360 -740 -521 -909 -435 -84 43 -146 165 -168 332 -15 108 -18 158 -18
280 0 166 8 296 28 441 2 20 6 54 9 76 3 34 43 263 59 343 3 14 23 95 45 180
153 600 380 988 660 1129 57 29 138 56 196 65 67 10 283 -4 380 -24z"/>
<path d="M1325 3600 c-145 -16 -294 -155 -312 -291 -3 -21 -8 -39 -12 -40 -47
-6 -76 -15 -127 -40 -225 -107 -281 -392 -114 -581 44 -51 141 -105 199 -113
37 -4 51 -18 51 -50 0 -31 55 -137 90 -173 78 -81 171 -120 275 -117 90 2 141
17 202 59 83 57 163 183 163 256 0 13 11 19 43 24 107 17 214 103 265 214 33
71 39 198 14 265 -48 127 -145 215 -275 248 -43 10 -46 13 -53 53 -10 60 -47
127 -100 180 -85 85 -186 120 -309 106z m127 -252 c41 -29 50 -52 55 -147 7
-135 40 -167 175 -170 90 -2 126 -19 153 -71 33 -63 7 -152 -52 -179 -16 -7
-65 -15 -111 -17 -130 -6 -159 -37 -165 -172 -4 -89 -19 -122 -67 -147 -62
-32 -134 -16 -173 37 -15 20 -22 51 -27 115 -4 48 -13 100 -19 114 -19 39 -70
59 -152 59 -80 0 -117 15 -149 60 -42 59 -18 153 47 184 20 10 60 16 99 16
131 0 166 36 174 177 5 80 9 96 30 119 51 55 124 64 182 22z"/>
<path d="M3575 3551 c-174 -80 -164 -334 15 -409 52 -21 146 -11 197 21 117
74 138 228 47 337 -56 66 -176 89 -259 51z"/>
<path d="M3133 3103 c-148 -63 -185 -251 -71 -362 86 -84 216 -86 305 -5 112
103 85 291 -51 361 -45 24 -134 26 -183 6z"/>
<path d="M4035 3101 c-173 -79 -179 -319 -11 -401 88 -42 178 -28 249 39 48
45 68 91 69 156 1 161 -164 272 -307 206z"/>
<path d="M3600 2655 c-25 -8 -61 -29 -79 -47 -143 -139 -61 -369 137 -383 87
-5 167 41 207 119 90 178 -74 370 -265 311z"/>
</g>
</svg>
